<?xml version="1.0" encoding="UTF-8" standalone="no"?>
<!DOCTYPE svg PUBLIC "-//W3C//DTD SVG 20010904//EN"
              "http://www.w3.org/TR/2001/REC-SVG-20010904/DTD/svg10.dtd">

<svg xmlns="http://www.w3.org/2000/svg"
     width="1.25in" height="1.25in"
     viewBox="0 0 954 954">
  <path id="bg_logo"
        fill="#9c51e0" stroke="none" stroke-width="1"
        d="M 233.00,121.00
           C 233.00,121.00 361.00,121.00 361.00,121.00
             361.00,121.00 398.00,121.00 398.00,121.00
             398.00,121.00 416.00,122.00 416.00,122.00
             416.00,122.00 382.00,138.75 382.00,138.75
             382.00,138.75 323.00,168.25 323.00,168.25
             323.00,168.25 304.00,177.75 304.00,177.75
             304.00,177.75 296.02,183.21 296.02,183.21
             296.02,183.21 295.00,191.00 295.00,191.00
             295.00,191.00 295.00,770.00 295.00,770.00
             295.00,770.00 647.00,770.00 647.00,770.00
             647.00,770.00 647.00,479.00 647.00,479.00
             647.00,479.00 601.00,493.67 601.00,493.67
             601.00,493.67 512.00,523.33 512.00,523.33
             512.00,523.33 486.00,532.00 486.00,532.00
             486.00,532.00 474.60,536.70 474.60,536.70
             474.60,536.70 473.00,545.00 473.00,545.00
             473.00,545.00 473.00,592.00 473.00,592.00
             473.00,592.00 507.00,583.87 507.00,583.87
             507.00,583.87 562.00,570.13 562.00,570.13
             562.00,570.13 591.00,563.00 591.00,563.00
             591.00,563.00 591.00,664.00 591.00,664.00
             591.00,664.00 591.00,714.00 591.00,714.00
             591.00,714.00 352.00,714.00 352.00,714.00
             352.00,714.00 352.00,416.00 352.00,416.00
             352.00,416.00 386.00,422.20 386.00,422.20
             386.00,422.20 448.00,434.60 448.00,434.60
             448.00,434.60 650.00,475.00 650.00,475.00
             650.00,475.00 655.59,511.00 655.59,511.00
             655.59,511.00 666.92,579.00 666.92,579.00
             666.92,579.00 695.08,748.00 695.08,748.00
             695.08,748.00 709.00,832.00 709.00,832.00
             709.00,832.00 657.00,832.00 657.00,832.00
             657.00,832.00 552.00,832.00 552.00,832.00
             552.00,832.00 233.00,832.00 233.00,832.00
             233.00,832.00 233.00,754.00 233.00,754.00
             233.00,754.00 233.00,597.00 233.00,597.00
             233.00,597.00 233.00,121.00 233.00,121.00 Z" />
</svg>
